<svg xmlns="http://www.w3.org/2000/svg" version="1.1" viewBox="0 0 291 132" fill="currentColor" id="logo">
  <path style="" fill="currentColor" d="M271.6 5.8c13.3 6 11.8 27 8 35.2-9.3 21-2.5 18.8.2 20 13.6 6.4 13.2 18.4 7 30-5 9.8-18 11.2-28.6 8-11.7-3.2-14.9-4-19.7-12.3-10.6-20 .3-40.1 3.3-63 2-15.4 16.6-24 29.8-18z"/>
  <path style="fill:var(--c)" d="M267.8 51.5l-1.8 6.3-2.8 10.8 2.2.5C270 65 270 65 275 65.6c7.5 2.4 9 6.6 8.5 14.2-3 10.6-9 12.2-19.6 11C243 87 241 75.2 243.5 55.1l1.5-7.7c1.8-8.1 2.2-25.6 7.2-32.5 8.5-9.8 26-4 22 15.7-3 13.7-6.5 20.9-6.5 20.9z"/>
  <path style="" fill="currentColor" d="M181.2 3c10.4 5.6 16 15.8 23.2 42.2 2.6 9.6 0 13.2 0 19.3V69c-1 19.4-18 19-35.2 21.3-27.3 3.7-30.4-13.2-31-29.2 2.8-12.9 6.5-24 21-24a81 81 0 0 0-4-11c-1.2-16 8.3-33 26-23.2z"/>
  <path style="" fill="currentColor" d="M252.8 44.8c4.6 6.2-1 18.2-2.7 27.8l-1 5.8c-3.2 18-8 40.2-30.3 38.3-16.3-2.3-25.4-6.9-29.8-23.8l-.8-2.4c1.8-9.6 5.4-8.6 12.7-15l-3.5-10.3c-1-14.4-.4-32.6 20-31 9 .6 10.1 6.7 10.1 6.7s13.8-11 25.4 4z"/>
  <path style="fill:var(--c)" d="M240.4 43.4c15.5 1.5-.9 41.4-.9 41.4-7.7 20-16 26.7-35 19.5-6.9-2.7-9.4-11.7-6.5-20.2 8.9-6.2 11.7-3.7 16.9 3 3.2 4.2 12.6-9.2 8.3-8.7-21 1.8-21.4-15-19.4-25.9 1.9-11 6-15 14-13.3 8.3 1.4 2 19.6 4.7 20 6 .8 2.5-17.5 18-15.8z"/>
  <path style="" fill="currentColor" d="M123.2 46c10.3 0 17.4 3 20.1 10.6 3 8.5 5.2 15-.2 24-3 1-3 1-10.3 1l-6.7 1c.5 4 .5 4 3 8 0 11-5.5 20.2-17.2 21.6-17.5-2.3-23-18-23-33.4v-7C90 52.2 123.2 46 123.2 46z"/>
  <path style="fill:var(--c)" d="M171.3 4.7C189.8 7 197.7 45.7 199 61c-1.4 14.5-8 16.8-21.4 18l-5.1.3c-5.7.6-11.3 1.2-17 1-10-4-10.5-11-10-21 2.3-12 9.6-18 22-17l5 1C166.2 34 161.6 30 160.8 21c.7-7.7 1.6-15.2 10.5-16.3zm-50.6 48c11.6-10.3 23 8.7 18.1 15.7-3 4.2-15 0-18.3 5.6-2.3 4 0 3.4-2 13-1.6 7 .4 12.5-8.3 14.7C97 105.7 94 80.2 94 74.3c0-18.8 8.5-5.4 26.6-21.6z"/>
  <path style="" fill="currentColor" d="M195.4 85.3c4.5 9.9 6.1 52-30.7 45.6-4.3-.7-4.3-.7-10-4-4.4 0-15.3 3-24.5 0-14.5-4.8-13-14.4-12.3-25.6l.3-5C120 82.6 113.8 72 142 72.8c6 .6 9.7 2 13.2 7.1 2.2 3.6 5 4.4 10 5.4 9.3-15.4 24.6-12 30.2.2z"/>
  <path style="fill:var(--c)" d="M146.6 78.3c5.6 6.4-3.7 20.8-3.3 23.5.2 2.6 5.9 1.7 5.5-1.1-1-6.3 2.4-13.3 11.5-12.5 13.6 1-1 13 7.7 14 5.5.7 5-4.2 3.7-11.3-4-7.5 4.2-12.4 11-10.2 14.1 4.4 8 9.5 5 25.1-3.3 16.4-6.8 17.6-22 16-6.5-1.8-4.8-3.6-10.6-6-7.6 3.5-16 4.7-24.2 3.6-12.2-7.2-8.4-28.6-4.6-37.5 2.8-6.7 11-7 20.3-3.6z"/>
  <path style="" fill="currentColor" d="M96.3 7.4c8.2 3.8 8.4 14.3 5.6 21.7 0 0 8.4-.8 13.2 1.5 10 4.6 10.4 17 3.4 25.8-5.3 6.6-11.8 6.4-20.6 7.8-4.7 10.4-2.3 10.6 3 15.4 8.7 7.8 7.3 33.5-14.5 35.3-25.8 2.2-34.7-9.2-38.2-25.7.6-26.3.6-26.3 8.6-35.8-17.5-3.2-17.2-14.4-14-26.8 7.1-8.2 12.4-9.3 22.7-5.4.5-1.6 1-5.2 5-9.3a23 23 0 0 1 25.8-4.5z"/>
  <path style="fill:var(--c)" d="M92.3 11.2c6.7 3.2 4.2 14.6 2.5 19.3-1.7 4.8-10.5 4.6-5.7 9.8 2.6 2.8 4-8 15.3-7.7 7.2.2 13.2.5 13.8 9.7-3 10.5-13.8 14-23.7 12l-4.6-1c.6 4 2 7.3-.3 16A32.3 32.3 0 0 1 85 80.6s8-3.7 14 4c3.7 5.2-1 16-5 19.3-5.7 4.3-18.8 3.7-28.4-1.5C51.3 91.1 50 72.6 59 56.8c3.8-4.6 1.7-3.8 4-7.6-1.5-.4-.7-1.5-2-1.8-6-.6-6-.6-10-4.6-5.4-7.9-6.5-13.7 1.7-19 6.8-4.3 12.6 4.5 12.6 4.5s2 8.7 4.4 5.5c2.4-3-1.8-5-.9-10C74 11.4 85.5 7.9 92.2 11.2z"/>
  <path style="" fill="currentColor" d="M72.2 59c1.8 4 .4 7.6-1.9 12-.3 3.5 0 7 1 10.3 1.1 28-14.8 32.6-39.7 35-12 .3-25.6-1.3-29.9-13.9-7.4-21.7 11.4-26.8 11.4-26.8s-.3-2-.5-6.3c4.2-31.6 48.5-35 59.6-10.4z"/>
  <path style="fill:var(--c)" d="M65.2 56C69 61 69 72.8 53.5 73.5c-21.4 1-15.2-14-19.4-12.5-5.3 2-5 7.5 1.8 12.8 7 5.2 5.3 5.3 21.4 4.7 4.1-.8 4.2-.8 7.6-1 2.3 5 2.3 5 2 11.3-4 15.7-16.4 19-31 19l-3.8-.2c-12.4 0-19-.5-26.2-11.5-1.2-8.2.8-13.2 9.4-15 5.5 7 14.3 10.3 15.8 6.8 1.9-4.3-4.9-1.7-8.4-5.7-.3-1.9-4.3-6.3-4-10.4 1-13 4.6-21.4 22.6-24a25 25 0 0 1 24 8.2z"/>
  <path style="" fill="currentColor" d="M167.8 58s0-4 3.7-4c5.5 0 3 7.5.6 11-1.5 2-3.5 3.3-4.3 3.3 0 0-2-.7-4.3-2.4-6-4.7-4.3-11.3 1-11.8 2.5-.2 3.3 3 3.3 3.8z"/>
</svg>