<svg xmlns="http://www.w3.org/2000/svg" width="330" height="110" fill="currentColor" id="logo">
  <path d="M231.4 0c-7.8.2-15 6-17 13.5-1.4 2.7-1 7-2.5 9-6 0-12 2.1-16.4 6.1-4.7-9.8-19.2-12.7-27.4-5.6a15 15 0 0 0-5.5 11.9c-1.8-1.3-5.1 1-4.3-2.2-.7-6.5-6-12-12.5-13.2a18.8 18.8 0 0 0-15.6 3.2c-5.2-4-12.6-3.5-18.2-.7-2.3.7-4-3.2-6.7-3A26.8 26.8 0 0 0 89 20.4c-1.4.6-4.5 5.4-4 1.9.5-5.4.6-11.5-3-15.9-5-5.7-13.8-7-20.8-4.7-6.2 1.8-9.8 8.1-10.7 14.2-1 2.3.6 6-1.4 7.6-3 .7-4.3-3.1-7-3.7a41 41 0 0 0-23.8-.3c-8.3 2.4-16 9.2-17 18.2-.7 5.9 1.5 12 5.4 16.2-3 1.5-4.8 4.7-6 7.8-2.3 6.8.4 15.4 7 18.7A40 40 0 0 0 31.5 84a19.8 19.8 0 0 0 10.7 22.2c9.5 5 20.6 3.6 30.9 3.8 67 0 134 .2 201.1-.3a31.4 31.4 0 0 0 26.9-18.1c1.4-2.9 2.5-5.9 3.3-9 6.4 2.6 14 1.8 20-1.8 4.9-3.6 6.6-10.3 5.5-16.1a171.4 171.4 0 0 1-.6-33.5c.2-5.6 1-11.2.4-16.8-.7-5.6-4.4-11.2-10.2-12.6-6.6-1.9-14.9-1.4-19.7 4-3.6 4-4.6 9.4-4.8 14.5-7-3-15.6-2.1-21.9 2.3-1.6 1.8-2.5 2.2-3.7-.2-3.6-4.1-9.6-5.2-14.8-4.1-3 .7-1.1-4.5-2.7-6.2a16.4 16.4 0 0 0-10.3-10.3 25 25 0 0 0-10-1.8" fill="currentColor"/>
  <path d="M315.6 75.8c-3.9.6-8.9.7-11.3-3-2-3.7-1.3-8.1-1.8-12.1-.7-14.3-1.2-28.8.7-43 .3-3 1.3-6.5 4.3-8a15 15 0 0 1 11 .3c3 1.6 3.4 5.4 3.4 8.4-.4 9.7-1.5 19.4-1.3 29 0 6.8.7 13.4 1.4 20 .6 3.7-1.6 7.6-5.5 8.2l-.5.1zM283 99.3c8.4-4.1 13-13.4 14.3-22.3 1.8-10.9.3-21.9.1-32.8-.4-4.6-.1-9.6-2.7-13.6a9 9 0 0 0-8.2-4c-3.7 0-7.8.8-10.1 3.9-2 3.6-.5 7.7-1.2 11.6-.3 4.7-.2 10-3.5 13.9-2.1 3.2-6.7 1.7-6.4-2.1-1-7.7 1-15.4-.3-23-.6-3.5-4-5.4-7.4-4.9-3.3 0-7 .3-9.4 2.8-2.4 3.5-1.5 8-2 11.9-.3 7.6-.3 15.8 4.2 22.4 3.2 5.1 9.4 8.6 15.5 7.1 5.2-1 9.8-4.3 12.4-8.8.2 6.1.8 13.1-3.1 18.4-3 3.4-7.8 2.4-11.7 2.5-68 .2-136 .2-204-.2-2.9.4-5.6-.9-8-2.5-3.3-2.4-7.9-.8-10.2 2.2-3.9 4.4-3 11.6 1.6 15.2 5.9 5 14 5.1 21.4 5 69.7.1 139.4.2 209-.3a24 24 0 0 0 9.7-2.4" style="fill:var(--c)"/>
  <path d="M207.7 50c-1.4 5.1 3 11 8.5 10.4 6.3-.3 10.1-8.7 6.1-13.6-1.7-2.4-4.4-4.4-7.5-3.6a8.6 8.6 0 0 0-7 6.8m34.1-3.4c-.2 8 .9 15.8 1.7 23.7a6.4 6.4 0 0 1-6 6.8c-3.9.8-8.2.2-11-2.6-2-2.8-5-.3-7.2.7-6.6 2.8-15.2 1.8-19.8-4-5.4-6.1-6-14.8-5.2-22.6.9-6.7 4-14 10.7-16.8 4.6-2 10.3-2 14.6.9.5-7.2.4-15 4.6-21.1 4.2-4.9 11.7-4.3 16.7-1.2 4 2.4 4.2 7.6 3.7 11.7-.8 8.2-2.4 16.3-2.8 24.5m-64.8 29.2c-6.1 1-11.8-3.3-14.6-8.3-1.3-1.1-1.8-6.7-2.7-3.3-2.3 5.3-6.3 10.8-12.4 11.4-8 1-15.4-5.7-16.9-13.4-2.1-8.8-.3-18 1.3-26.7.5-3 1.8-6 4.6-7.3 4.2-2.3 10.4-1.4 13 2.7 2 4.1 0 8.6-.5 12.8-.7 4.4-2.2 9-1 13.5 2 3 4.1-2.3 4.7-4.2 1.8-3.5 2.3-8.3 6.2-10 2.5-1.3 5.2.7 6 3 2 3.7 3.5 7.6 5.6 11.1 3.1 3.5 3.6-3 3-5.1-.1-6.6-3.7-12.9-2.5-19.5 1.6-4.8 7.5-6.4 11.8-4.9 3.3.9 6 3.6 6.3 7a88.3 88.3 0 0 1 2.3 23c-.5 6.3-3.2 13-9 16.1a18.3 18.3 0 0 1-5.2 2m-72.6-.2c4.2-1 5.8-5.8 5.9-9.6.6-5.4-1.2-11.3 2-16.1 2.2-3.2 6.6-2.2 10-2.6 3.5.3 5.6-3.3 5.8-6.4.3-4.1.3-9-3-11.9-3.2-2-7.4-.9-10.5.7-2.7.8-5.8 5-7.1 5 0-3.5-1.5-8-5.6-8.2-3.2-.1-6.8-.3-9.6 1.6-3.2 2.2-2.5 6.4-2.4 9.7 1 9 .5 18 .9 26.9 0 3.3 0 7.3 2.8 9.6a15 15 0 0 0 10.8 1.3m-33.5.3c-3.9.6-9 .7-11.3-3-2-3.8-1.3-8.2-1.8-12.2-.2-4-.5-7.8-.5-11.7-3.5-.4-7.9 1-10.7-1.7-2.5-3.5-1.4-8-.7-12 .5-3.5 4.4-4.5 7.4-4 2.2.4 4.9.4 4.1-2.6.6-5.4.2-11 2.4-16 1.5-3.2 5.2-4.1 8.4-4 3.7 0 8.2 1.9 8.8 6 .5 5.6-.5 11.2-.7 16.7 3.4 0 7.8-.2 9.8 3.2 1.2 2.6.6 5.5.7 8.2-.6 3.8-4.8 5.6-8.2 5-.8.3-2.9-.6-2.8.7 0 7 1.3 14 1.3 21 0 3.3-2.6 5.7-5.7 6.2zm-40.3.3c-6.8.7-14.2.4-20.2-3.4-3.8-3.2-3.3-10.8 1.7-12.6 4-1 7.9 1.5 11.9 1.5 4.4-.6.3-5.1-1.8-6.2-3.9-2.7-8.5-4.8-11-9-3.5-4.8-2.2-12 2.4-15.5 4.7-4.1 11.3-5 17.4-5 4.2 0 9.6.6 11.8 4.9 1.8 3.9 1.1 9.7-3 11.8-3.7.9-7.4-1.2-11.1-.4-4.4 1-.3 5 2 6 4.1 2.3 9 4.3 11.2 8.8a12.8 12.8 0 0 1-2.2 14.7 16.6 16.6 0 0 1-9 4.4" style="fill:var(--c)"/>
</svg>